<?xml version="1.0" encoding="utf-8"?>
<!-- Generator: Adobe Illustrator 25.0.1, SVG Export Plug-In . SVG Version: 6.00 Build 0)  -->
<svg version="1.1" id="Слой_1" xmlns="http://www.w3.org/2000/svg" xmlns:xlink="http://www.w3.org/1999/xlink" x="0px" y="0px"
	 viewBox="0 0 30 27" style="enable-background:new 0 0 30 27;" xml:space="preserve">
<style type="text/css">
	.st0{fill:#FF0066;}
	.st1{enable-background:new    ;}
	.st2{fill:#FFFFFF;}
</style>
<path class="st0" d="M28.7,21.5c-4.6,7.2-23,7.3-27.6,0.2C-3.3,14.5,5.9,0.1,15.1,0C24.3,0,33.4,14.3,28.7,21.5z"/>
<g class="st1">
	<path class="st2" d="M10.1,13.4H6.8v4.7h-1V6.8h3.7c1.2,0,2.2,0.3,2.8,0.9c0.7,0.6,1,1.4,1,2.5c0,0.7-0.2,1.4-0.6,1.9
		c-0.4,0.6-1,0.9-1.7,1.2l2.8,4.8v0.1h-1L10.1,13.4z M6.8,12.6h2.9c0.8,0,1.5-0.2,1.9-0.7c0.5-0.5,0.7-1.1,0.7-1.8
		c0-0.8-0.3-1.4-0.8-1.9c-0.5-0.4-1.2-0.7-2.1-0.7H6.8V12.6z"/>
	<path class="st2" d="M24.3,16.8c-0.3,0.5-0.9,0.8-1.6,1.1s-1.5,0.4-2.4,0.4c-0.9,0-1.7-0.2-2.4-0.6c-0.7-0.4-1.2-1-1.6-1.8
		c-0.4-0.8-0.6-1.7-0.6-2.7v-1.4c0-1.6,0.4-2.8,1.2-3.7s1.9-1.4,3.2-1.4c1.2,0,2.1,0.3,2.8,0.9c0.7,0.6,1.1,1.4,1.3,2.5h-1
		c-0.1-0.8-0.5-1.5-1-1.9S21,7.5,20.2,7.5c-1.1,0-1.9,0.4-2.5,1.1c-0.6,0.8-0.9,1.8-0.9,3.2v1.3c0,0.9,0.1,1.6,0.4,2.3
		c0.3,0.7,0.7,1.2,1.3,1.5c0.5,0.4,1.2,0.5,1.9,0.5c0.8,0,1.5-0.1,2.1-0.4c0.4-0.2,0.7-0.4,0.9-0.6v-2.9h-3.1v-0.8h4V16.8z"/>
</g>
</svg>
